<mxfile host="app.diagrams.net" modified="2023-09-18T14:02:10.072Z" agent="Mozilla/5.0 (Windows NT 10.0; Win64; x64) AppleWebKit/537.36 (KHTML, like Gecko) Chrome/116.0.0.0 Safari/537.36" version="21.7.5" etag="wphOYsVkfKgjbVKIDWe0" type="github">
  <diagram name="Page-1" id="RuVPphLZ3CsaCb0_3JvY">
    <mxGraphModel>
      <root>
        <mxCell id="0" />
        <mxCell id="1" parent="0" />
      </root>
    </mxGraphModel>
  </diagram>
</mxfile>
